<?xml version="1.0" encoding="iso-8859-1"?>
<!-- Generator: Adobe Illustrator 19.0.0, SVG Export Plug-In . SVG Version: 6.00 Build 0)  -->
<svg version="1.1" id="Layer_1" xmlns="http://www.w3.org/2000/svg" xmlns:xlink="http://www.w3.org/1999/xlink" x="0px" y="0px"
	 viewBox="0 0 511.992 511.992" style="enable-background:new 0 0 511.992 511.992;" xml:space="preserve">
<g>
	<rect x="119.636" y="382.496" style="fill:#DBADA2;" width="53.48" height="44"/>
	<rect x="279.776" y="276.996" style="fill:#DBADA2;" width="74.66" height="64.34"/>
</g>
<path style="fill:#ED5564;" d="M365.214,341.34h-96.225c-5.891,0-10.664,4.764-10.664,10.654v159.998h117.56V351.994
	C375.885,346.103,371.104,341.34,365.214,341.34z"/>
<path style="fill:#DBADA2;" d="M435.15,154.021c-6.25-6.25-16.375-6.25-22.625,0l-74.092,79.194l53.264,22.781l44.484-75.999
	C440.869,171.35,441.4,160.264,435.15,154.021z"/>
<path style="fill:#DA4453;" d="M258.325,351.994v32h117.56v-32c0-5.891-4.78-10.654-10.671-10.654h-96.225
	C263.099,341.34,258.325,346.103,258.325,351.994z"/>
<path style="fill:#5D9CEC;" d="M173.288,426.65h-53.554c-5.891,0-10.672,4.781-10.672,10.688v74.654h74.897v-74.654
	C183.96,431.432,179.186,426.65,173.288,426.65z"/>
<path style="fill:#4A89DC;" d="M109.062,437.338v10.654h74.897v-10.654c0-5.906-4.773-10.688-10.672-10.688h-53.554
	C113.844,426.65,109.062,431.432,109.062,437.338z"/>
<g>
	<path style="fill:#EAC6BB;" d="M381.103,21.336c-8.843,0-15.999,7.164-15.999,16v101.326c0,2.945-2.391,5.336-5.327,5.336
		c-2.953,0-5.344-2.391-5.344-5.336V16c0-8.836-7.156-16-16-16c-8.828,0-16,7.164-16,16v122.662c0,2.945-2.374,5.336-5.327,5.336
		c-2.938,0-5.328-2.391-5.328-5.336V37.336c0-8.836-7.172-16-16-16c-8.844,0-16,7.164-16,16v101.326
		c0,2.945-2.391,5.336-5.344,5.336c-2.945,0-5.328-2.391-5.328-5.336V79.999c0-8.836-7.164-16-16-16c-8.843,0-16,7.164-16,16v58.663
		v90.67c0,44.179,35.812,80.007,79.999,80.007c44.186,0,79.997-35.828,79.997-80.007v-90.67V37.336
		C397.103,28.5,389.947,21.336,381.103,21.336z"/>
	<path style="fill:#EAC6BB;" d="M103.844,213.161c-5.891,0-10.664,4.781-10.664,10.672v74.663h21.335v-74.664
		C114.516,217.942,109.734,213.161,103.844,213.161z"/>
	<path style="fill:#EAC6BB;" d="M130.516,191.833c-5.898,0-10.672,4.773-10.672,10.664v95.999h21.335v-95.999
		C141.179,196.607,136.406,191.833,130.516,191.833z"/>
	<path style="fill:#EAC6BB;" d="M157.179,213.161c-5.891,0-10.664,4.781-10.664,10.672v74.663h21.328v-74.664
		C167.843,217.942,163.07,213.161,157.179,213.161z"/>
</g>
<path style="fill:#DBADA2;" d="M74.97,312.277c-4.164,4.172-3.125,8.875,0,15.094l21.71,45.67l35.508-18.625l-42.132-42.139
	C85.892,308.121,79.134,308.121,74.97,312.277z"/>
<g>
	<path style="fill:#EAC6BB;" d="M183.843,234.496c-5.891,0-10.664,4.773-10.664,10.664v74.679h21.336V245.16
		C194.515,239.27,189.733,234.496,183.843,234.496z"/>
	<path style="fill:#EAC6BB;" d="M194.515,354.494c0,27.984-22.688,50.656-50.671,50.656s-50.663-22.672-50.663-50.656
		c0-27.982,22.679-50.654,50.663-50.654S194.515,326.512,194.515,354.494z"/>
	<rect x="93.176" y="298.496" style="fill:#EAC6BB;" width="101.33" height="55.998"/>
</g>
<g>
</g>
<g>
</g>
<g>
</g>
<g>
</g>
<g>
</g>
<g>
</g>
<g>
</g>
<g>
</g>
<g>
</g>
<g>
</g>
<g>
</g>
<g>
</g>
<g>
</g>
<g>
</g>
<g>
</g>
</svg>
