<svg id="Capa_1" enable-background="new 0 0 512 512" height="512" viewBox="0 0 512 512" width="512" xmlns="http://www.w3.org/2000/svg"><g><path d="m512 256c0 117.76-79.52 216.95-187.78 246.8-9.15 2.53-37.862-14.797-47.391-13.295-9.529 1.503.126 21.835-9.719 22.255-3.68.16-7.39.24-11.11.24-33.75 0-65.97-6.53-95.47-18.4-8.781-3.534.401-25.264-7.869-29.709-6.12-3.29-29.816 10.903-35.621 7.139-70.43-45.6-117.04-124.88-117.04-215.03 0-141.38 114.62-256 256-256s256 114.62 256 256z" fill="#f4db51"/><g><path d="m379.757 177.633h87.518v152.194h-87.518z" fill="#50405a"/><g fill="#362a40"><path d="m423.516 177.633h43.759v152.194h-43.759z"/><path d="m379.757 274.321h87.518v55.505h-87.518z"/><path d="m284.046 453.444h-158.603c-22.364 0-40.494-18.13-40.494-40.494v-72.521h239.592v72.521c0 22.365-18.13 40.494-40.495 40.494z"/><path d="m268.786 124.947h-33.986v-56.86c0-26.006 21.158-47.164 47.163-47.164h100.812v33.985h-100.811c-7.266 0-13.178 5.912-13.178 13.179z"/></g><path d="m506.33 173.23v161c0 25.85-33 36.7-48.34 15.89l-14.94-20.29v-152.2l14.94-20.29c15.34-20.81 48.34-9.96 48.34 15.89z" fill="#50405a"/><path d="m506.33 278.49v55.74c0 25.85-33 36.7-48.34 15.89l-14.94-20.29v-55.75l14.95 20.29c15.33 20.81 48.33 9.97 48.33-15.88z" fill="#362a40"/><path d="m332.329 97.769h-131.77v-8.071c0-25.472-20.65-46.122-46.122-46.122h-84.178c-25.473 0-46.122 20.649-46.122 46.122v63.033 17.422 171.013c0 30.355 24.607 54.962 54.962 54.962h253.23c30.355 0 54.962-24.608 54.962-54.962v-188.434c0-30.355-24.607-54.963-54.962-54.963z" fill="#50405a"/><path d="m112.94 396.121h-33.838c-30.36 0-54.966-24.605-54.966-54.954v-251.469c0-25.478 20.652-46.129 46.118-46.129h33.849c-25.478 0-46.129 20.652-46.129 46.129v251.469c0 30.349 24.606 54.954 54.966 54.954z" fill="#362a40"/><path d="m429.469 75.833h-93.385c-15.886 0-28.765-12.879-28.765-28.765v-18.303c0-15.886 12.878-28.765 28.765-28.765h93.385c15.886 0 28.765 12.879 28.765 28.765v18.303c0 15.886-12.879 28.765-28.765 28.765z" fill="#50405a"/><path d="m458.231 28.763v18.307c0 15.882-12.88 28.763-28.763 28.763h-93.392c-15.882 0-28.763-12.88-28.763-28.763v-18.307c0-2.56.34-5.052.974-7.42 3.274 12.291 14.478 21.332 27.789 21.332h93.392c13.311 0 24.515-9.04 27.789-21.332.634 2.368.974 4.86.974 7.42z" fill="#362a40"/><path d="m280.645 316.319h-149.862c-22.697 0-41.097-18.4-41.097-41.097v-66.985c0-22.697 18.4-41.097 41.097-41.097h149.863c22.697 0 41.097 18.4 41.097 41.097v66.985c0 22.698-18.4 41.097-41.098 41.097z" fill="#362a40"/><g fill="#50405a"><circle cx="157.494" cy="241.73" r="27.877"/><circle cx="253.934" cy="241.73" r="27.877"/></g><g fill="#362a40"><path d="m222.67 431.46-17.92 17.93-44.22 44.21c-15.28-6.15-29.84-13.72-43.49-22.57l72.6-72.6z"/><path d="m324.22 502.8c-18.3 5.06-37.42 8.12-57.11 8.96l-62.36-62.37-17.93-17.93 17.93-17.92 15.1-15.11z"/></g><circle cx="86.676" cy="95.854" fill="#dc4355" r="21.096"/><circle cx="139.27" cy="95.854" fill="#78c378" r="21.096"/><path d="m147.754 115.164c-2.6 1.15-5.47 1.79-8.49 1.79-11.65 0-21.09-9.44-21.09-21.1 0-11.65 9.44-21.09 21.09-21.09 3.02 0 5.89.64 8.49 1.79-7.43 3.25-12.61 10.67-12.61 19.3-.001 8.64 5.18 16.05 12.61 19.31z" fill="#5fa258"/><path d="m95.16 115.164c-2.6 1.15-5.47 1.79-8.49 1.79-11.65 0-21.09-9.44-21.09-21.1 0-11.65 9.44-21.09 21.09-21.09 3.02 0 5.89.64 8.49 1.79-7.43 3.25-12.61 10.67-12.61 19.3 0 8.64 5.18 16.05 12.61 19.31z" fill="#c60054"/></g></g></svg>